%TF.GenerationSoftware,KiCad,Pcbnew,9.0.8-9.0.8~ubuntu22.04.1*%
%TF.CreationDate,2026-03-23T14:06:21-05:00*%
%TF.ProjectId,AugerBoard,41756765-7242-46f6-9172-642e6b696361,rev?*%
%TF.SameCoordinates,Original*%
%TF.FileFunction,Soldermask,Bot*%
%TF.FilePolarity,Negative*%
%FSLAX46Y46*%
G04 Gerber Fmt 4.6, Leading zero omitted, Abs format (unit mm)*
G04 Created by KiCad (PCBNEW 9.0.8-9.0.8~ubuntu22.04.1) date 2026-03-23 14:06:21*
%MOMM*%
%LPD*%
G01*
G04 APERTURE LIST*
%ADD10C,0.800000*%
%ADD11C,6.400000*%
%ADD12C,1.524000*%
%ADD13O,3.500000X2.200000*%
%ADD14R,2.500000X1.500000*%
%ADD15O,2.500000X1.500000*%
%ADD16C,2.362200*%
%ADD17C,1.308000*%
%ADD18C,1.208000*%
%ADD19C,1.100000*%
%ADD20C,1.400000*%
%ADD21C,4.000000*%
%ADD22C,2.000000*%
G04 APERTURE END LIST*
D10*
%TO.C,H1*%
X137160000Y-157340000D03*
X135462944Y-156637056D03*
X138857056Y-156637056D03*
X134760000Y-154940000D03*
D11*
X137160000Y-154940000D03*
D10*
X139560000Y-154940000D03*
X135462944Y-153242944D03*
X138857056Y-153242944D03*
X137160000Y-152540000D03*
%TD*%
%TO.C,H4*%
X134760000Y-71120000D03*
X135462944Y-69422944D03*
X135462944Y-72817056D03*
X137160000Y-68720000D03*
D11*
X137160000Y-71120000D03*
D10*
X137160000Y-73520000D03*
X138857056Y-69422944D03*
X138857056Y-72817056D03*
X139560000Y-71120000D03*
%TD*%
%TO.C,H3*%
X68580000Y-73520000D03*
X66882944Y-72817056D03*
X70277056Y-72817056D03*
X66180000Y-71120000D03*
D11*
X68580000Y-71120000D03*
D10*
X70980000Y-71120000D03*
X66882944Y-69422944D03*
X70277056Y-69422944D03*
X68580000Y-68720000D03*
%TD*%
%TO.C,H2*%
X70980000Y-154940000D03*
X70277056Y-156637056D03*
X70277056Y-153242944D03*
X68580000Y-157340000D03*
D11*
X68580000Y-154940000D03*
D10*
X68580000Y-152540000D03*
X66882944Y-156637056D03*
X66882944Y-153242944D03*
X66180000Y-154940000D03*
%TD*%
D12*
%TO.C,Conn10*%
X114300000Y-132588000D03*
X116840000Y-132588000D03*
X119380000Y-132588000D03*
%TD*%
%TO.C,Conn1*%
X119380000Y-146558000D03*
X121920000Y-146558000D03*
X124460000Y-146558000D03*
X127000000Y-146558000D03*
X129540000Y-146558000D03*
%TD*%
%TO.C,Conn2*%
X114300000Y-103886000D03*
X116840000Y-103886000D03*
X119380000Y-103886000D03*
%TD*%
D13*
%TO.C,SW10*%
X93174500Y-87340000D03*
X93174500Y-95540000D03*
D14*
X93174500Y-89440000D03*
D15*
X93174500Y-91440000D03*
X93174500Y-93440000D03*
%TD*%
D16*
%TO.C,J7*%
X75733551Y-80772000D03*
X81233550Y-80772000D03*
%TD*%
D12*
%TO.C,Conn13*%
X83947000Y-156972000D03*
X86487000Y-156972000D03*
%TD*%
%TO.C,Conn6*%
X129032000Y-117856000D03*
X131572000Y-117856000D03*
X134112000Y-117856000D03*
%TD*%
%TO.C,U1*%
X99568000Y-69596000D03*
X99568000Y-72136000D03*
X99568000Y-74676000D03*
%TD*%
D16*
%TO.C,J6*%
X75692000Y-119380000D03*
X81191999Y-119380000D03*
%TD*%
D12*
%TO.C,Conn9*%
X131572000Y-93980000D03*
X134112000Y-93980000D03*
X136652000Y-93980000D03*
%TD*%
D17*
%TO.C,U2*%
X107188000Y-155194000D03*
X107188000Y-152654000D03*
X107188000Y-150114000D03*
X107188000Y-147574000D03*
X107188000Y-122174000D03*
X91948000Y-152654000D03*
X107188000Y-145034000D03*
X107188000Y-142494000D03*
X107188000Y-139954000D03*
X107188000Y-137414000D03*
X107188000Y-134874000D03*
X107188000Y-132334000D03*
X107188000Y-129794000D03*
X107188000Y-127254000D03*
X107188000Y-124714000D03*
X91948000Y-124714000D03*
X91948000Y-127254000D03*
X91948000Y-129794000D03*
X91948000Y-132334000D03*
X91948000Y-134874000D03*
X91948000Y-137414000D03*
X91948000Y-139954000D03*
X91948000Y-142494000D03*
X91948000Y-145034000D03*
X91948000Y-147574000D03*
X91948000Y-150114000D03*
X107188000Y-119634000D03*
X107188000Y-117094000D03*
X107188000Y-114554000D03*
X107188000Y-112014000D03*
X107188000Y-109474000D03*
X107188000Y-106934000D03*
X107188000Y-104394000D03*
X107188000Y-101854000D03*
X107188000Y-99314000D03*
X91948000Y-99314000D03*
X91948000Y-101854000D03*
X91948000Y-104394000D03*
X91948000Y-106934000D03*
X91948000Y-109474000D03*
X91948000Y-112014000D03*
X91948000Y-114554000D03*
X91948000Y-117094000D03*
X91948000Y-119634000D03*
X107188000Y-157734000D03*
X91948000Y-122174000D03*
X91948000Y-155194000D03*
D18*
X96398000Y-142764000D03*
X96398000Y-144764000D03*
X94398000Y-144764000D03*
X94398000Y-142764000D03*
X98398000Y-142764000D03*
X98398000Y-144764000D03*
D17*
X91948000Y-157734000D03*
%TD*%
D16*
%TO.C,J5*%
X75692000Y-100076000D03*
X81191999Y-100076000D03*
%TD*%
D19*
%TO.C,J1*%
X78434500Y-129159000D03*
X80974500Y-130429000D03*
X78434500Y-131699000D03*
X80974500Y-132969000D03*
X78434500Y-134239000D03*
X80974500Y-135509000D03*
X78434500Y-136779000D03*
X80974500Y-138049000D03*
D20*
X67004500Y-127279000D03*
X68794500Y-129819000D03*
X67004500Y-137389000D03*
X68794500Y-139929000D03*
D21*
X72084500Y-127889000D03*
X72084500Y-139319000D03*
D22*
X75134500Y-125729000D03*
X75134500Y-141479000D03*
%TD*%
D12*
%TO.C,Conn5*%
X129032000Y-132588000D03*
X131572000Y-132588000D03*
X134112000Y-132588000D03*
%TD*%
%TO.C,Conn12*%
X75946000Y-156972000D03*
X78486000Y-156972000D03*
%TD*%
%TO.C,Conn3*%
X129032000Y-103886000D03*
X131572000Y-103886000D03*
X134112000Y-103886000D03*
%TD*%
D16*
%TO.C,J4*%
X75733551Y-90424000D03*
X81233550Y-90424000D03*
%TD*%
%TO.C,J3*%
X75692000Y-109728000D03*
X81191999Y-109728000D03*
%TD*%
D12*
%TO.C,U4*%
X120396000Y-69596000D03*
X120396000Y-72136000D03*
X120396000Y-74676000D03*
%TD*%
%TO.C,Conn7*%
X129540000Y-82804000D03*
X132080000Y-82804000D03*
X134620000Y-82804000D03*
X137160000Y-82804000D03*
%TD*%
%TO.C,Conn4*%
X114300000Y-117856000D03*
X116840000Y-117856000D03*
X119380000Y-117856000D03*
%TD*%
G36*
X72840398Y-66059685D02*
G01*
X72886153Y-66112489D01*
X72896097Y-66181647D01*
X72886055Y-66215725D01*
X71788173Y-68607725D01*
X71742318Y-68660443D01*
X71675477Y-68680000D01*
X68479089Y-68680000D01*
X68277920Y-68696667D01*
X68078848Y-68729887D01*
X67883174Y-68779440D01*
X67692276Y-68844975D01*
X67507444Y-68926051D01*
X67507438Y-68926053D01*
X67329934Y-69022113D01*
X67160962Y-69132509D01*
X67001678Y-69256485D01*
X66853183Y-69393183D01*
X66716485Y-69541678D01*
X66592509Y-69700962D01*
X66482113Y-69869934D01*
X66386053Y-70047438D01*
X66386051Y-70047444D01*
X66304975Y-70232276D01*
X66239440Y-70423174D01*
X66189887Y-70618848D01*
X66156667Y-70817920D01*
X66140000Y-71019088D01*
X66140000Y-154941805D01*
X66140001Y-154941839D01*
X66140001Y-155040911D01*
X66156668Y-155242077D01*
X66189887Y-155441144D01*
X66189888Y-155441148D01*
X66239444Y-155636838D01*
X66304970Y-155827709D01*
X66386049Y-156012549D01*
X66386050Y-156012553D01*
X66482120Y-156190074D01*
X66592515Y-156359045D01*
X66592516Y-156359046D01*
X66716482Y-156518317D01*
X66853179Y-156666810D01*
X67001681Y-156803515D01*
X67160975Y-156927498D01*
X67329933Y-157037884D01*
X67507436Y-157133943D01*
X67507456Y-157133952D01*
X67692283Y-157215025D01*
X67883176Y-157280559D01*
X67883186Y-157280562D01*
X68078846Y-157330109D01*
X68078856Y-157330111D01*
X68277935Y-157363331D01*
X68277941Y-157363332D01*
X68479073Y-157379998D01*
X68479089Y-157379999D01*
X68578048Y-157379999D01*
X68578111Y-157380000D01*
X72583555Y-157380000D01*
X72650594Y-157399685D01*
X72681233Y-157427613D01*
X73913999Y-159003999D01*
X73914001Y-159004000D01*
X108512622Y-159004000D01*
X108512622Y-159003999D01*
X109110829Y-157440887D01*
X109153175Y-157385311D01*
X109218844Y-157361452D01*
X109226721Y-157361207D01*
X137158451Y-157379998D01*
X137158690Y-157380002D01*
X137260911Y-157380002D01*
X137462081Y-157363333D01*
X137661152Y-157330113D01*
X137856826Y-157280560D01*
X138047724Y-157215025D01*
X138232556Y-157133949D01*
X138232562Y-157133947D01*
X138410066Y-157037887D01*
X138579038Y-156927491D01*
X138738322Y-156803515D01*
X138886817Y-156666817D01*
X139023515Y-156518322D01*
X139147491Y-156359038D01*
X139257887Y-156190066D01*
X139353947Y-156012562D01*
X139353949Y-156012556D01*
X139435025Y-155827724D01*
X139500560Y-155636826D01*
X139550113Y-155441152D01*
X139583333Y-155242081D01*
X139600002Y-155040911D01*
X139600002Y-154938571D01*
X139600000Y-154938410D01*
X139600000Y-71019087D01*
X139583331Y-70817917D01*
X139550112Y-70618857D01*
X139550108Y-70618835D01*
X139500559Y-70423176D01*
X139500557Y-70423171D01*
X139435024Y-70232275D01*
X139353949Y-70047447D01*
X139257880Y-69869926D01*
X139147483Y-69700952D01*
X139147482Y-69700951D01*
X139023518Y-69541682D01*
X138886815Y-69393182D01*
X138738320Y-69256484D01*
X138738311Y-69256476D01*
X138579041Y-69132512D01*
X138410056Y-69022108D01*
X138232560Y-68926052D01*
X138232554Y-68926050D01*
X138047721Y-68844973D01*
X137856832Y-68779442D01*
X137661150Y-68729887D01*
X137462078Y-68696667D01*
X137260911Y-68680000D01*
X86304797Y-68580140D01*
X86237796Y-68560324D01*
X86197378Y-68517661D01*
X84887583Y-66225521D01*
X84871413Y-66157548D01*
X84894559Y-66091624D01*
X84949672Y-66048678D01*
X84995245Y-66040000D01*
X137159290Y-66040000D01*
X137160642Y-66040007D01*
X137376962Y-66042365D01*
X137386418Y-66042830D01*
X137817996Y-66080589D01*
X137828720Y-66082001D01*
X138254699Y-66157112D01*
X138265260Y-66159453D01*
X138683087Y-66271409D01*
X138693404Y-66274662D01*
X139099869Y-66422603D01*
X139109864Y-66426743D01*
X139501894Y-66609550D01*
X139511489Y-66614545D01*
X139886087Y-66830819D01*
X139895211Y-66836631D01*
X140249551Y-67084743D01*
X140258133Y-67091328D01*
X140589487Y-67369367D01*
X140597462Y-67376676D01*
X140903323Y-67682537D01*
X140910632Y-67690512D01*
X141188671Y-68021866D01*
X141195256Y-68030448D01*
X141443368Y-68384788D01*
X141449180Y-68393912D01*
X141665454Y-68768510D01*
X141670449Y-68778105D01*
X141853256Y-69170135D01*
X141857396Y-69180130D01*
X142005337Y-69586595D01*
X142008590Y-69596912D01*
X142120546Y-70014739D01*
X142122887Y-70025300D01*
X142197998Y-70451279D01*
X142199410Y-70462003D01*
X142237169Y-70893581D01*
X142237634Y-70903037D01*
X142239993Y-71119357D01*
X142240000Y-71120709D01*
X142240000Y-154939290D01*
X142239993Y-154940642D01*
X142237634Y-155156964D01*
X142237169Y-155166420D01*
X142199410Y-155597998D01*
X142197998Y-155608722D01*
X142122887Y-156034701D01*
X142120546Y-156045262D01*
X142008591Y-156463085D01*
X142005338Y-156473403D01*
X141857393Y-156879874D01*
X141853253Y-156889868D01*
X141670448Y-157281896D01*
X141665453Y-157291491D01*
X141449179Y-157666088D01*
X141443367Y-157675212D01*
X141195255Y-158029552D01*
X141188670Y-158038134D01*
X140910631Y-158369488D01*
X140903322Y-158377463D01*
X140597467Y-158683318D01*
X140589492Y-158690627D01*
X140258126Y-158968676D01*
X140249544Y-158975261D01*
X139895211Y-159223368D01*
X139886087Y-159229180D01*
X139511489Y-159445454D01*
X139501894Y-159450449D01*
X139109863Y-159633256D01*
X139099868Y-159637396D01*
X138693403Y-159785337D01*
X138683087Y-159788590D01*
X138265261Y-159900546D01*
X138254699Y-159902887D01*
X137828720Y-159977998D01*
X137817996Y-159979410D01*
X137386418Y-160017169D01*
X137376962Y-160017634D01*
X137160642Y-160019992D01*
X137159290Y-160019999D01*
X68580662Y-160019999D01*
X68579349Y-160019992D01*
X68363070Y-160017702D01*
X68353576Y-160017237D01*
X67922004Y-159979479D01*
X67911279Y-159978067D01*
X67485291Y-159902955D01*
X67474730Y-159900614D01*
X67056903Y-159788659D01*
X67046586Y-159785406D01*
X66640106Y-159637460D01*
X66630111Y-159633320D01*
X66238084Y-159450515D01*
X66228489Y-159445520D01*
X65853875Y-159229237D01*
X65844752Y-159223425D01*
X65490418Y-158975319D01*
X65481836Y-158968734D01*
X65150470Y-158690686D01*
X65142494Y-158683377D01*
X64836629Y-158377512D01*
X64829321Y-158369537D01*
X64551278Y-158038179D01*
X64544692Y-158029597D01*
X64296576Y-157675251D01*
X64290764Y-157666127D01*
X64074486Y-157291524D01*
X64069491Y-157281929D01*
X63886683Y-156889896D01*
X63882543Y-156879902D01*
X63734596Y-156473424D01*
X63731343Y-156463106D01*
X63619386Y-156045275D01*
X63617045Y-156034714D01*
X63541933Y-155608730D01*
X63540521Y-155598005D01*
X63502763Y-155166434D01*
X63502298Y-155156940D01*
X63500007Y-154940659D01*
X63500000Y-154939346D01*
X63500000Y-71120709D01*
X63500007Y-71119357D01*
X63502365Y-70903037D01*
X63502830Y-70893581D01*
X63540589Y-70462003D01*
X63542001Y-70451279D01*
X63617112Y-70025300D01*
X63619453Y-70014739D01*
X63731409Y-69596912D01*
X63734662Y-69586595D01*
X63882603Y-69180130D01*
X63886743Y-69170135D01*
X64069550Y-68778105D01*
X64074545Y-68768510D01*
X64290819Y-68393912D01*
X64296631Y-68384788D01*
X64544743Y-68030448D01*
X64551328Y-68021866D01*
X64829367Y-67690512D01*
X64836676Y-67682537D01*
X65142537Y-67376676D01*
X65150512Y-67369367D01*
X65481866Y-67091328D01*
X65490448Y-67084743D01*
X65844788Y-66836631D01*
X65853912Y-66830819D01*
X66228510Y-66614545D01*
X66238105Y-66609550D01*
X66630135Y-66426743D01*
X66640130Y-66422603D01*
X67046595Y-66274662D01*
X67056912Y-66271409D01*
X67474739Y-66159453D01*
X67485300Y-66157112D01*
X67911279Y-66082001D01*
X67922003Y-66080589D01*
X68353581Y-66042830D01*
X68363037Y-66042365D01*
X68579358Y-66040007D01*
X68580710Y-66040000D01*
X72773359Y-66040000D01*
X72840398Y-66059685D01*
G37*
M02*
