M48
; DRILL file {KiCad 9.0.8-9.0.8~ubuntu22.04.1} date 2026-03-23T14:06:16-0500
; FORMAT={-:-/ absolute / inch / decimal}
; #@! TF.CreationDate,2026-03-23T14:06:16-05:00
; #@! TF.GenerationSoftware,Kicad,Pcbnew,9.0.8-9.0.8~ubuntu22.04.1
; #@! TF.FileFunction,Plated,1,2,PTH
FMAT,2
INCH
; #@! TA.AperFunction,Plated,PTH,ViaDrill
T1C0.0118
; #@! TA.AperFunction,Plated,PTH,ViaDrill
T2C0.0120
; #@! TA.AperFunction,Plated,PTH,ComponentDrill
T3C0.0197
; #@! TA.AperFunction,Plated,PTH,ComponentDrill
T4C0.0276
; #@! TA.AperFunction,Plated,PTH,ComponentDrill
T5C0.0315
; #@! TA.AperFunction,Plated,PTH,ComponentDrill
T6C0.0350
; #@! TA.AperFunction,Plated,PTH,ComponentDrill
T7C0.0354
; #@! TA.AperFunction,Plated,PTH,ComponentDrill
T8C0.0402
; #@! TA.AperFunction,Plated,PTH,ComponentDrill
T9C0.0591
; #@! TA.AperFunction,Plated,PTH,ComponentDrill
T10C0.0630
; #@! TA.AperFunction,Plated,PTH,ComponentDrill
T11C0.0730
; #@! TA.AperFunction,Plated,PTH,ComponentDrill
T12C0.1160
; #@! TA.AperFunction,Plated,PTH,ComponentDrill
T13C0.1280
%
G90
G05
T1
X3.34Y-3.03
X3.61Y-3.155
X3.67Y-5.805
X3.67Y-6.03
X3.67Y-6.115
X3.67Y-6.2
X3.8806Y-5.88
X3.91Y-5.98
X3.95Y-6.025
X3.95Y-6.16
X3.96Y-5.835
X4.085Y-6.12
X4.095Y-5.88
X4.105Y-6.245
X4.1353Y-6.19
X4.145Y-6.22
X4.17Y-6.01
X4.775Y-3.035
T2
X2.6Y-3.025
X2.6Y-3.175
X2.6Y-3.325
X2.6Y-3.475
X2.6Y-3.625
X2.6Y-3.775
X2.6Y-3.925
X2.6Y-4.075
X2.6Y-4.225
X2.6Y-4.375
X2.6Y-4.525
X2.6Y-4.675
X2.6Y-4.825
X2.6Y-4.975
X2.6Y-5.125
X2.6Y-5.725
X2.6Y-5.875
X2.615Y-5.575
X2.62Y-5.275
X2.675Y-5.625
X2.75Y-3.025
X2.75Y-3.325
X2.75Y-4.83
X2.75Y-4.975
X2.75Y-5.275
X2.75Y-5.425
X2.75Y-5.575
X2.75Y-5.725
X2.75Y-5.875
X2.76Y-5.13
X2.9Y-4.83
X2.9Y-5.125
X2.9Y-5.275
X2.9Y-5.58
X2.9Y-5.725
X2.9Y-5.875
X2.9Y-6.025
X2.9Y-6.175
X2.915Y-5.415
X2.965Y-2.665
X2.965Y-2.715
X3.015Y-5.455
X3.04Y-2.665
X3.04Y-2.715
X3.04Y-5.14
X3.04Y-6.23
X3.045Y-5.26
X3.05Y-4.83
X3.05Y-4.975
X3.05Y-5.425
X3.05Y-5.575
X3.05Y-5.725
X3.05Y-5.875
X3.05Y-6.025
X3.1016Y-5.6888
X3.115Y-2.665
X3.115Y-2.715
X3.14Y-6.015
X3.19Y-2.665
X3.19Y-2.715
X3.195Y-5.29
X3.2Y-4.83
X3.2Y-4.975
X3.2Y-5.575
X3.2Y-5.825
X3.2Y-6.175
X3.235Y-5.395
X3.265Y-2.665
X3.265Y-2.715
X3.285Y-3.1
X3.2984Y-5.9112
X3.3Y-6.05
X3.345Y-4.725
X3.3455Y-5.9005
X3.35Y-2.875
X3.35Y-3.625
X3.35Y-3.775
X3.35Y-3.985
X3.35Y-4.075
X3.35Y-4.225
X3.35Y-4.375
X3.35Y-4.525
X3.35Y-4.825
X3.35Y-4.975
X3.35Y-5.125
X3.35Y-5.305
X3.35Y-5.575
X3.355Y-5.715
X3.355Y-5.82
X3.36Y-5.395
X3.36Y-6.14
X3.37Y-5.99
X3.3841Y-3.22
X3.39Y-3.045
X3.4574Y-4.8328
X3.46Y-3.5459
X3.46Y-3.9109
X3.46Y-4.6719
X3.46Y-6.065
X3.4729Y-5.8446
X3.475Y-3.965
X3.475Y-4.225
X3.475Y-4.375
X3.475Y-4.525
X3.475Y-5.905
X3.475Y-6.175
X3.48Y-3.625
X3.48Y-3.745
X3.48Y-4.075
X3.48Y-4.975
X3.48Y-5.125
X3.48Y-5.305
X3.48Y-5.425
X3.48Y-5.575
X3.48Y-5.725
X3.5Y-2.725
X3.5Y-2.875
X3.5Y-3.045
X3.5Y-3.175
X3.5Y-3.285
X3.55Y-5.76
X3.55Y-5.955
X3.5575Y-4.0725
X3.56Y-3.445
X3.5632Y-6.2418
X3.565Y-5.915
X3.57Y-3.8
X3.65Y-2.725
X3.65Y-2.875
X3.65Y-3.045
X3.65Y-3.175
X3.65Y-3.325
X3.655Y-4.375
X3.66Y-5.455
X3.665Y-4.825
X3.665Y-5.125
X3.665Y-5.575
X3.67Y-5.3
X3.67Y-5.73
X3.675Y-3.93
X3.675Y-4.005
X3.675Y-4.2
X3.675Y-4.505
X3.675Y-4.915
X3.71Y-5.295
X3.75Y-5.27
X3.755Y-4.52
X3.76Y-5.115
X3.77Y-4.225
X3.77Y-4.375
X3.78Y-3.165
X3.78Y-4.81
X3.78Y-5.23
X3.8Y-2.725
X3.8Y-2.875
X3.8Y-3.045
X3.8Y-4.675
X3.8Y-4.975
X3.8Y-5.425
X3.8Y-5.575
X3.815Y-3.325
X3.825Y-3.61
X3.825Y-5.175
X3.825Y-5.74
X3.845Y-3.46
X3.845Y-3.925
X3.845Y-4.075
X3.85Y-3.775
X3.8583Y-3.1409
X3.8583Y-3.4009
X3.8583Y-3.6609
X3.87Y-5.175
X3.92Y-4.855
X3.9305Y-5.0738
X3.94Y-4.95
X3.95Y-3.045
X3.95Y-3.175
X3.95Y-3.325
X3.95Y-3.475
X3.95Y-3.625
X3.95Y-5.275
X3.95Y-5.425
X3.95Y-5.575
X3.95Y-5.725
X3.96Y-3.775
X3.96Y-3.925
X3.985Y-5.045
X4.1Y-2.875
X4.1Y-3.045
X4.1Y-3.195
X4.1Y-3.325
X4.1Y-3.475
X4.1Y-3.61
X4.1Y-3.775
X4.1Y-3.925
X4.1Y-4.075
X4.1Y-4.225
X4.1Y-4.375
X4.1Y-4.525
X4.1Y-4.675
X4.1Y-4.825
X4.1Y-4.975
X4.1Y-5.125
X4.1Y-5.275
X4.1Y-5.425
X4.1Y-5.575
X4.1Y-5.725
X4.22Y-4.66
X4.225Y-4.26
X4.225Y-4.86
X4.225Y-5.26
X4.225Y-5.56
X4.23Y-3.6609
X4.23Y-5.16
X4.235Y-3.47
X4.235Y-3.61
X4.2383Y-3.1409
X4.2383Y-3.4009
X4.24Y-5.755
X4.25Y-2.725
X4.25Y-2.875
X4.25Y-3.045
X4.25Y-3.195
X4.25Y-3.325
X4.25Y-3.775
X4.25Y-6.16
X4.265Y-3.94
X4.265Y-4.375
X4.265Y-5.875
X4.27Y-6.025
X4.275Y-4.115
X4.275Y-4.52
X4.275Y-5.385
X4.385Y-4.81
X4.385Y-5.395
X4.4Y-2.725
X4.4Y-2.875
X4.4Y-3.045
X4.4Y-3.175
X4.4Y-3.475
X4.4Y-3.625
X4.4Y-3.775
X4.4Y-3.925
X4.4Y-4.075
X4.4Y-4.375
X4.4Y-4.525
X4.4Y-4.675
X4.4Y-4.975
X4.4Y-5.57
X4.4Y-5.725
X4.4Y-5.875
X4.4Y-6.025
X4.4Y-6.175
X4.405Y-5.145
X4.41Y-3.34
X4.415Y-4.255
X4.415Y-5.06
X4.4631Y-4.2926
X4.505Y-4.695
X4.535Y-5.145
X4.54Y-4.26
X4.55Y-2.725
X4.55Y-2.875
X4.55Y-3.045
X4.55Y-3.325
X4.55Y-3.465
X4.55Y-3.605
X4.55Y-3.775
X4.55Y-3.925
X4.55Y-4.375
X4.55Y-4.525
X4.55Y-4.825
X4.55Y-4.975
X4.55Y-5.57
X4.55Y-5.725
X4.55Y-5.875
X4.55Y-6.025
X4.55Y-6.175
X4.555Y-5.05
X4.555Y-5.405
X4.58Y-5.28
X4.6Y-4.03
X4.6183Y-3.1409
X4.6183Y-3.4009
X4.6183Y-3.6609
X4.665Y-4.255
X4.7Y-2.875
X4.7Y-3.045
X4.7Y-3.175
X4.7Y-3.325
X4.7Y-3.475
X4.7Y-3.625
X4.7Y-3.775
X4.7Y-4.525
X4.7Y-4.69
X4.7Y-4.8
X4.7Y-5.275
X4.7Y-5.71
X4.7Y-5.875
X4.7Y-6.025
X4.7Y-6.175
X4.705Y-3.925
X4.705Y-4.035
X4.705Y-5.145
X4.72Y-5.57
X4.725Y-5.05
X4.745Y-4.29
X4.745Y-4.37
X4.745Y-5.425
X4.795Y-4.38
X4.795Y-4.94
X4.795Y-5.52
X4.83Y-4.26
X4.85Y-2.875
X4.85Y-3.175
X4.85Y-3.325
X4.85Y-3.475
X4.85Y-3.625
X4.85Y-3.775
X4.85Y-3.925
X4.85Y-4.075
X4.85Y-4.375
X4.85Y-4.525
X4.85Y-4.675
X4.85Y-4.825
X4.85Y-4.945
X4.85Y-5.275
X4.85Y-5.425
X4.85Y-5.57
X4.85Y-5.875
X4.85Y-6.025
X4.85Y-6.175
X4.855Y-5.045
X4.855Y-5.145
X4.86Y-5.705
X4.97Y-4.26
X4.98Y-5.42
X4.985Y-4.375
X4.99Y-4.825
X4.99Y-4.945
X5.0Y-2.725
X5.0Y-2.875
X5.0Y-3.025
X5.0Y-3.475
X5.0Y-3.625
X5.0Y-3.775
X5.0Y-3.925
X5.0Y-4.075
X5.0Y-4.675
X5.0Y-5.275
X5.0Y-5.57
X5.0Y-5.71
X5.0Y-5.875
X5.0Y-6.025
X5.0Y-6.175
X5.01Y-4.525
X5.0325Y-5.0475
X5.035Y-5.125
X5.0431Y-4.8426
X5.0431Y-5.4226
X5.045Y-5.575
X5.095Y-5.005
X5.13Y-5.4
X5.14Y-4.04
X5.15Y-2.725
X5.15Y-2.875
X5.15Y-3.025
X5.15Y-3.175
X5.15Y-3.325
X5.15Y-3.475
X5.15Y-3.625
X5.15Y-3.775
X5.15Y-3.925
X5.15Y-4.225
X5.15Y-4.375
X5.15Y-4.525
X5.15Y-4.69
X5.15Y-4.815
X5.15Y-5.125
X5.15Y-5.575
X5.15Y-5.71
X5.15Y-5.875
X5.15Y-6.025
X5.15Y-6.175
X5.16Y-5.005
X5.16Y-5.285
X5.3Y-3.025
X5.3Y-3.175
X5.3Y-3.325
X5.3Y-3.475
X5.3Y-3.625
X5.3Y-3.775
X5.3Y-3.925
X5.3Y-4.225
X5.3Y-4.525
X5.3Y-4.69
X5.3Y-4.975
X5.3Y-5.125
X5.3Y-5.275
X5.3Y-5.575
X5.3Y-5.725
X5.3Y-5.875
X5.31Y-4.05
X5.315Y-4.82
X5.325Y-4.37
X5.325Y-5.425
X5.41Y-4.41
X5.45Y-3.025
X5.45Y-3.175
X5.45Y-3.325
X5.45Y-4.525
X5.45Y-4.675
X5.45Y-4.825
X5.45Y-4.975
X5.45Y-5.125
X5.45Y-5.275
X5.45Y-5.425
X5.45Y-5.575
X5.45Y-5.725
X5.45Y-5.875
X5.4509Y-4.4212
X5.485Y-3.465
X5.485Y-3.615
X5.485Y-3.765
X5.485Y-3.915
X5.485Y-4.065
X5.485Y-4.215
X5.485Y-4.365
T3
X2.6055Y-2.8
X2.6055Y-6.1
X2.6332Y-2.7332
X2.6332Y-2.8668
X2.6332Y-6.0332
X2.6332Y-6.1668
X2.7Y-2.7055
X2.7Y-2.8945
X2.7Y-6.0055
X2.7Y-6.1945
X2.7668Y-2.7332
X2.7668Y-2.8668
X2.7668Y-6.0332
X2.7668Y-6.1668
X2.7945Y-2.8
X2.7945Y-6.1
X5.3055Y-2.8
X5.3055Y-6.1
X5.3332Y-2.7332
X5.3332Y-2.8668
X5.3332Y-6.0332
X5.3332Y-6.1668
X5.4Y-2.7055
X5.4Y-2.8945
X5.4Y-6.0055
X5.4Y-6.1945
X5.4668Y-2.7332
X5.4668Y-2.8668
X5.4668Y-6.0332
X5.4668Y-6.1668
X5.4945Y-2.8
X5.4945Y-6.1
T4
X3.7165Y-5.6206
X3.7165Y-5.6994
X3.7952Y-5.6206
X3.7952Y-5.6994
X3.8739Y-5.6206
X3.8739Y-5.6994
T5
X3.62Y-3.91
X3.62Y-4.01
X3.62Y-4.11
X3.62Y-4.21
X3.62Y-4.31
X3.62Y-4.41
X3.62Y-4.51
X3.62Y-4.61
X3.62Y-4.71
X3.62Y-4.81
X3.62Y-4.91
X3.62Y-5.01
X3.62Y-5.11
X3.62Y-5.21
X3.62Y-5.31
X3.62Y-5.41
X3.62Y-5.51
X3.62Y-5.61
X3.62Y-5.71
X3.62Y-5.81
X3.62Y-5.91
X3.62Y-6.01
X3.62Y-6.11
X3.62Y-6.21
X3.6683Y-3.5213
X3.6683Y-3.6
X3.6683Y-3.6787
X4.22Y-3.91
X4.22Y-4.01
X4.22Y-4.11
X4.22Y-4.21
X4.22Y-4.31
X4.22Y-4.41
X4.22Y-4.51
X4.22Y-4.61
X4.22Y-4.71
X4.22Y-4.81
X4.22Y-4.91
X4.22Y-5.01
X4.22Y-5.11
X4.22Y-5.21
X4.22Y-5.31
X4.22Y-5.41
X4.22Y-5.51
X4.22Y-5.61
X4.22Y-5.71
X4.22Y-5.81
X4.22Y-5.91
X4.22Y-6.01
X4.22Y-6.11
X4.22Y-6.21
T6
X3.92Y-2.74
X3.92Y-2.84
X3.92Y-2.94
X4.74Y-2.74
X4.74Y-2.84
X4.74Y-2.94
T7
X2.99Y-6.18
X3.088Y-5.085
X3.088Y-5.185
X3.088Y-5.285
X3.088Y-5.385
X3.09Y-6.18
X3.188Y-5.135
X3.188Y-5.235
X3.188Y-5.335
X3.188Y-5.435
X3.305Y-6.18
X3.405Y-6.18
X4.5Y-4.09
X4.5Y-4.64
X4.5Y-5.22
X4.6Y-4.09
X4.6Y-4.64
X4.6Y-5.22
X4.7Y-4.09
X4.7Y-4.64
X4.7Y-5.22
X4.7Y-5.77
X4.8Y-5.77
X4.9Y-5.77
X5.0Y-5.77
X5.08Y-4.09
X5.08Y-4.64
X5.08Y-5.22
X5.1Y-3.26
X5.1Y-5.77
X5.18Y-3.7
X5.18Y-4.09
X5.18Y-4.64
X5.18Y-5.22
X5.2Y-3.26
X5.28Y-3.7
X5.28Y-4.09
X5.28Y-4.64
X5.28Y-5.22
X5.3Y-3.26
X5.38Y-3.7
X5.4Y-3.26
T8
X2.638Y-5.011
X2.638Y-5.409
X2.7084Y-5.111
X2.7084Y-5.509
T9
X3.6683Y-3.4386
X3.6683Y-3.7614
T10
X2.9581Y-4.95
X2.9581Y-5.57
T11
X2.98Y-3.94
X2.98Y-4.32
X2.98Y-4.7
X2.9816Y-3.18
X2.9816Y-3.56
X3.1965Y-3.94
X3.1965Y-4.32
X3.1965Y-4.7
X3.1982Y-3.18
X3.1982Y-3.56
T12
X2.7Y-2.8
X2.7Y-6.1
X5.4Y-2.8
X5.4Y-6.1
T13
X2.838Y-5.035
X2.838Y-5.485
M30
