%TF.GenerationSoftware,KiCad,Pcbnew,9.0.8-9.0.8~ubuntu22.04.1*%
%TF.CreationDate,2026-03-23T14:06:21-05:00*%
%TF.ProjectId,AugerBoard,41756765-7242-46f6-9172-642e6b696361,rev?*%
%TF.SameCoordinates,Original*%
%TF.FileFunction,Paste,Top*%
%TF.FilePolarity,Positive*%
%FSLAX46Y46*%
G04 Gerber Fmt 4.6, Leading zero omitted, Abs format (unit mm)*
G04 Created by KiCad (PCBNEW 9.0.8-9.0.8~ubuntu22.04.1) date 2026-03-23 14:06:21*
%MOMM*%
%LPD*%
G01*
G04 APERTURE LIST*
G04 Aperture macros list*
%AMRoundRect*
0 Rectangle with rounded corners*
0 $1 Rounding radius*
0 $2 $3 $4 $5 $6 $7 $8 $9 X,Y pos of 4 corners*
0 Add a 4 corners polygon primitive as box body*
4,1,4,$2,$3,$4,$5,$6,$7,$8,$9,$2,$3,0*
0 Add four circle primitives for the rounded corners*
1,1,$1+$1,$2,$3*
1,1,$1+$1,$4,$5*
1,1,$1+$1,$6,$7*
1,1,$1+$1,$8,$9*
0 Add four rect primitives between the rounded corners*
20,1,$1+$1,$2,$3,$4,$5,0*
20,1,$1+$1,$4,$5,$6,$7,0*
20,1,$1+$1,$6,$7,$8,$9,0*
20,1,$1+$1,$8,$9,$2,$3,0*%
G04 Aperture macros list end*
%ADD10RoundRect,0.237500X0.237500X-0.250000X0.237500X0.250000X-0.237500X0.250000X-0.237500X-0.250000X0*%
%ADD11RoundRect,0.237500X0.250000X0.237500X-0.250000X0.237500X-0.250000X-0.237500X0.250000X-0.237500X0*%
%ADD12RoundRect,0.150000X-0.587500X-0.150000X0.587500X-0.150000X0.587500X0.150000X-0.587500X0.150000X0*%
%ADD13R,1.600000X1.400000*%
%ADD14RoundRect,0.150000X0.825000X0.150000X-0.825000X0.150000X-0.825000X-0.150000X0.825000X-0.150000X0*%
%ADD15RoundRect,0.237500X-0.300000X-0.237500X0.300000X-0.237500X0.300000X0.237500X-0.300000X0.237500X0*%
%ADD16RoundRect,0.237500X-0.250000X-0.237500X0.250000X-0.237500X0.250000X0.237500X-0.250000X0.237500X0*%
%ADD17RoundRect,0.237500X-0.287500X-0.237500X0.287500X-0.237500X0.287500X0.237500X-0.287500X0.237500X0*%
%ADD18R,1.200000X1.950000*%
%ADD19RoundRect,0.237500X0.287500X0.237500X-0.287500X0.237500X-0.287500X-0.237500X0.287500X-0.237500X0*%
%ADD20RoundRect,0.237500X-0.237500X0.250000X-0.237500X-0.250000X0.237500X-0.250000X0.237500X0.250000X0*%
%ADD21RoundRect,0.237500X0.237500X-0.287500X0.237500X0.287500X-0.237500X0.287500X-0.237500X-0.287500X0*%
%ADD22R,1.270000X0.508000*%
%ADD23RoundRect,0.150000X0.150000X-0.587500X0.150000X0.587500X-0.150000X0.587500X-0.150000X-0.587500X0*%
%ADD24RoundRect,0.237500X0.300000X0.237500X-0.300000X0.237500X-0.300000X-0.237500X0.300000X-0.237500X0*%
%ADD25R,0.711200X0.914400*%
G04 APERTURE END LIST*
D10*
%TO.C,R7*%
X87884000Y-99337500D03*
X87884000Y-97512500D03*
%TD*%
D11*
%TO.C,R4*%
X74900800Y-75057000D03*
X73075800Y-75057000D03*
%TD*%
D12*
%TO.C,Q4*%
X128094500Y-137734000D03*
X128094500Y-139634000D03*
X129969500Y-138684000D03*
%TD*%
D10*
%TO.C,R8*%
X87884000Y-118665000D03*
X87884000Y-116840000D03*
%TD*%
D13*
%TO.C,SW2*%
X98000000Y-79780000D03*
X105200000Y-79780000D03*
X98000000Y-82780000D03*
X105200000Y-82780000D03*
%TD*%
D14*
%TO.C,U3*%
X102043000Y-157988000D03*
X102043000Y-156718000D03*
X102043000Y-155448000D03*
X102043000Y-154178000D03*
X97093000Y-154178000D03*
X97093000Y-155448000D03*
X97093000Y-156718000D03*
X97093000Y-157988000D03*
%TD*%
D10*
%TO.C,R16*%
X94742000Y-156995500D03*
X94742000Y-155170500D03*
%TD*%
D15*
%TO.C,C4*%
X122835500Y-69723000D03*
X124560500Y-69723000D03*
%TD*%
D16*
%TO.C,R14*%
X117451500Y-139700000D03*
X119276500Y-139700000D03*
%TD*%
D15*
%TO.C,C1*%
X102007500Y-69723000D03*
X103732500Y-69723000D03*
%TD*%
%TO.C,C2*%
X102007500Y-75565000D03*
X103732500Y-75565000D03*
%TD*%
D13*
%TO.C,SW9*%
X107652000Y-92988000D03*
X114852000Y-92988000D03*
X107652000Y-95988000D03*
X114852000Y-95988000D03*
%TD*%
D12*
%TO.C,Q9*%
X113362500Y-137734000D03*
X113362500Y-139634000D03*
X115237500Y-138684000D03*
%TD*%
%TO.C,Q6*%
X113362500Y-123002000D03*
X113362500Y-124902000D03*
X115237500Y-123952000D03*
%TD*%
D13*
%TO.C,SW5*%
X98000000Y-86384000D03*
X105200000Y-86384000D03*
X98000000Y-89384000D03*
X105200000Y-89384000D03*
%TD*%
D15*
%TO.C,C5*%
X122835500Y-75565000D03*
X124560500Y-75565000D03*
%TD*%
D17*
%TO.C,D8*%
X132221000Y-122936000D03*
X133971000Y-122936000D03*
%TD*%
D18*
%TO.C,S1*%
X78780000Y-150145000D03*
X81280000Y-150145000D03*
X83780000Y-150145000D03*
X78780000Y-144495000D03*
X81280000Y-144495000D03*
X83780000Y-144495000D03*
%TD*%
D14*
%TO.C,U5*%
X102043000Y-151892000D03*
X102043000Y-150622000D03*
X102043000Y-149352000D03*
X102043000Y-148082000D03*
X97093000Y-148082000D03*
X97093000Y-149352000D03*
X97093000Y-150622000D03*
X97093000Y-151892000D03*
%TD*%
D16*
%TO.C,R10*%
X132183500Y-124968000D03*
X134008500Y-124968000D03*
%TD*%
D19*
%TO.C,D1*%
X91553000Y-78740000D03*
X89803000Y-78740000D03*
%TD*%
D20*
%TO.C,R15*%
X94742000Y-148947500D03*
X94742000Y-150772500D03*
%TD*%
D13*
%TO.C,SW7*%
X117304000Y-92988000D03*
X124504000Y-92988000D03*
X117304000Y-95988000D03*
X124504000Y-95988000D03*
%TD*%
D12*
%TO.C,Q5*%
X128094500Y-123002000D03*
X128094500Y-124902000D03*
X129969500Y-123952000D03*
%TD*%
D16*
%TO.C,R9*%
X132183500Y-139700000D03*
X134008500Y-139700000D03*
%TD*%
D21*
%TO.C,D5*%
X85852000Y-99323500D03*
X85852000Y-97573500D03*
%TD*%
D16*
%TO.C,R2*%
X85955500Y-81788000D03*
X87780500Y-81788000D03*
%TD*%
%TO.C,R12*%
X117451500Y-110998000D03*
X119276500Y-110998000D03*
%TD*%
D13*
%TO.C,SW6*%
X117304000Y-86384000D03*
X124504000Y-86384000D03*
X117304000Y-89384000D03*
X124504000Y-89384000D03*
%TD*%
D17*
%TO.C,D7*%
X132221000Y-137668000D03*
X133971000Y-137668000D03*
%TD*%
D16*
%TO.C,R13*%
X132183500Y-110998000D03*
X134008500Y-110998000D03*
%TD*%
D17*
%TO.C,D11*%
X132221000Y-108966000D03*
X133971000Y-108966000D03*
%TD*%
D12*
%TO.C,Q8*%
X128094500Y-109032000D03*
X128094500Y-110932000D03*
X129969500Y-109982000D03*
%TD*%
D19*
%TO.C,D3*%
X91553000Y-84836000D03*
X89803000Y-84836000D03*
%TD*%
D13*
%TO.C,SW8*%
X98000000Y-92988000D03*
X105200000Y-92988000D03*
X98000000Y-95988000D03*
X105200000Y-95988000D03*
%TD*%
D16*
%TO.C,R11*%
X117451500Y-124968000D03*
X119276500Y-124968000D03*
%TD*%
D17*
%TO.C,D12*%
X117489000Y-137668000D03*
X119239000Y-137668000D03*
%TD*%
D16*
%TO.C,R1*%
X85955500Y-78740000D03*
X87780500Y-78740000D03*
%TD*%
D17*
%TO.C,D9*%
X117489000Y-122936000D03*
X119239000Y-122936000D03*
%TD*%
D10*
%TO.C,R6*%
X87884000Y-90066500D03*
X87884000Y-88241500D03*
%TD*%
D17*
%TO.C,D10*%
X117489000Y-108966000D03*
X119239000Y-108966000D03*
%TD*%
D22*
%TO.C,MOSFET1*%
X77139800Y-70739000D03*
X77139800Y-72009000D03*
X77139800Y-73279000D03*
X77139800Y-74549000D03*
X82372200Y-74549000D03*
X82372200Y-73279000D03*
X82372200Y-72009000D03*
X82372200Y-70739000D03*
%TD*%
D23*
%TO.C,Q1*%
X85918000Y-94155500D03*
X87818000Y-94155500D03*
X86868000Y-92280500D03*
%TD*%
D16*
%TO.C,R3*%
X85955500Y-84836000D03*
X87780500Y-84836000D03*
%TD*%
D24*
%TO.C,C3*%
X85825500Y-138049000D03*
X84100500Y-138049000D03*
%TD*%
D23*
%TO.C,Q2*%
X85918000Y-103450000D03*
X87818000Y-103450000D03*
X86868000Y-101575000D03*
%TD*%
D19*
%TO.C,D2*%
X91553000Y-81788000D03*
X89803000Y-81788000D03*
%TD*%
D21*
%TO.C,D6*%
X85852000Y-118627500D03*
X85852000Y-116877500D03*
%TD*%
D13*
%TO.C,SW4*%
X107652000Y-86384000D03*
X114852000Y-86384000D03*
X107652000Y-89384000D03*
X114852000Y-89384000D03*
%TD*%
D12*
%TO.C,Q7*%
X113362500Y-109032000D03*
X113362500Y-110932000D03*
X115237500Y-109982000D03*
%TD*%
D13*
%TO.C,SW3*%
X117304000Y-79780000D03*
X124504000Y-79780000D03*
X117304000Y-82780000D03*
X124504000Y-82780000D03*
%TD*%
%TO.C,SW1*%
X107652000Y-79780000D03*
X114852000Y-79780000D03*
X107652000Y-82780000D03*
X114852000Y-82780000D03*
%TD*%
D21*
%TO.C,D4*%
X85852000Y-90029000D03*
X85852000Y-88279000D03*
%TD*%
D25*
%TO.C,D13*%
X75107800Y-69977000D03*
X75107800Y-73228200D03*
%TD*%
D23*
%TO.C,Q3*%
X85918000Y-122754000D03*
X87818000Y-122754000D03*
X86868000Y-120879000D03*
%TD*%
M02*
