%TF.GenerationSoftware,KiCad,Pcbnew,9.0.4*%
%TF.CreationDate,2025-11-01T18:04:22-05:00*%
%TF.ProjectId,AugerBoard,41756765-7242-46f6-9172-642e6b696361,rev?*%
%TF.SameCoordinates,Original*%
%TF.FileFunction,Soldermask,Bot*%
%TF.FilePolarity,Negative*%
%FSLAX46Y46*%
G04 Gerber Fmt 4.6, Leading zero omitted, Abs format (unit mm)*
G04 Created by KiCad (PCBNEW 9.0.4) date 2025-11-01 18:04:22*
%MOMM*%
%LPD*%
G01*
G04 APERTURE LIST*
%ADD10O,3.000000X5.100000*%
%ADD11C,1.524000*%
%ADD12O,3.500000X2.200000*%
%ADD13R,2.500000X1.500000*%
%ADD14O,2.500000X1.500000*%
%ADD15O,5.100000X3.000000*%
%ADD16C,2.946400*%
%ADD17C,1.308000*%
%ADD18C,1.208000*%
%ADD19C,1.100000*%
%ADD20C,1.400000*%
%ADD21C,4.000000*%
%ADD22C,2.000000*%
%ADD23R,1.700000X1.700000*%
%ADD24C,1.700000*%
G04 APERTURE END LIST*
D10*
%TO.C,Conn15*%
X81977200Y-117983000D03*
X81977200Y-125857000D03*
%TD*%
D11*
%TO.C,Conn10*%
X146812000Y-119380000D03*
X149352000Y-119380000D03*
X151892000Y-119380000D03*
%TD*%
%TO.C,Conn16*%
X124968000Y-144272000D03*
X127508000Y-144272000D03*
X130048000Y-144272000D03*
X132588000Y-144272000D03*
%TD*%
%TO.C,Conn2*%
X111760000Y-119380000D03*
X114300000Y-119380000D03*
X116840000Y-119380000D03*
%TD*%
%TO.C,Conn8*%
X111633000Y-144272000D03*
X114173000Y-144272000D03*
X116713000Y-144272000D03*
X119253000Y-144272000D03*
%TD*%
D12*
%TO.C,SW10*%
X154940000Y-80300000D03*
X154940000Y-72100000D03*
D13*
X154940000Y-78200000D03*
D14*
X154940000Y-76200000D03*
X154940000Y-74200000D03*
%TD*%
D15*
%TO.C,Conn1*%
X90297000Y-76897200D03*
X82423000Y-76897200D03*
%TD*%
D11*
%TO.C,Conn13*%
X153670000Y-135636000D03*
X153670000Y-133096000D03*
%TD*%
D16*
%TO.C,H3*%
X68580000Y-63500000D03*
%TD*%
D11*
%TO.C,Conn6*%
X111760000Y-132080000D03*
X114300000Y-132080000D03*
X116840000Y-132080000D03*
%TD*%
D10*
%TO.C,Conn11*%
X81977200Y-82423000D03*
X81977200Y-90297000D03*
%TD*%
D11*
%TO.C,U1*%
X102870000Y-74295000D03*
X100330000Y-74295000D03*
X97790000Y-74295000D03*
%TD*%
D16*
%TO.C,H2*%
X68580000Y-152400000D03*
%TD*%
D11*
%TO.C,Conn9*%
X141224000Y-132080000D03*
X143764000Y-132080000D03*
X146304000Y-132080000D03*
%TD*%
D17*
%TO.C,U2*%
X99822000Y-111760000D03*
X102362000Y-111760000D03*
X104902000Y-111760000D03*
X107442000Y-111760000D03*
X132842000Y-111760000D03*
X102362000Y-96520000D03*
X109982000Y-111760000D03*
X112522000Y-111760000D03*
X115062000Y-111760000D03*
X117602000Y-111760000D03*
X120142000Y-111760000D03*
X122682000Y-111760000D03*
X125222000Y-111760000D03*
X127762000Y-111760000D03*
X130302000Y-111760000D03*
X130302000Y-96520000D03*
X127762000Y-96520000D03*
X125222000Y-96520000D03*
X122682000Y-96520000D03*
X120142000Y-96520000D03*
X117602000Y-96520000D03*
X115062000Y-96520000D03*
X112522000Y-96520000D03*
X109982000Y-96520000D03*
X107442000Y-96520000D03*
X104902000Y-96520000D03*
X135382000Y-111760000D03*
X137922000Y-111760000D03*
X140462000Y-111760000D03*
X143002000Y-111760000D03*
X145542000Y-111760000D03*
X148082000Y-111760000D03*
X150622000Y-111760000D03*
X153162000Y-111760000D03*
X155702000Y-111760000D03*
X155702000Y-96520000D03*
X153162000Y-96520000D03*
X150622000Y-96520000D03*
X148082000Y-96520000D03*
X145542000Y-96520000D03*
X143002000Y-96520000D03*
X140462000Y-96520000D03*
X137922000Y-96520000D03*
X135382000Y-96520000D03*
X97282000Y-111760000D03*
X132842000Y-96520000D03*
X99822000Y-96520000D03*
D18*
X112252000Y-100970000D03*
X110252000Y-100970000D03*
X110252000Y-98970000D03*
X112252000Y-98970000D03*
X112252000Y-102970000D03*
X110252000Y-102970000D03*
D17*
X97282000Y-96520000D03*
%TD*%
D10*
%TO.C,Conn7*%
X81977200Y-135763000D03*
X81977200Y-143637000D03*
%TD*%
D19*
%TO.C,J1*%
X94107000Y-137973500D03*
X95377000Y-135433500D03*
X96647000Y-137973500D03*
X97917000Y-135433500D03*
X99187000Y-137973500D03*
X100457000Y-135433500D03*
X101727000Y-137973500D03*
X102997000Y-135433500D03*
D20*
X92227000Y-149403500D03*
X94767000Y-147613500D03*
X102337000Y-149403500D03*
X104877000Y-147613500D03*
D21*
X92837000Y-144323500D03*
X104267000Y-144323500D03*
D22*
X90677000Y-141273500D03*
X106427000Y-141273500D03*
%TD*%
D11*
%TO.C,Conn5*%
X135128000Y-119380000D03*
X137668000Y-119380000D03*
X140208000Y-119380000D03*
%TD*%
%TO.C,Conn12*%
X153670000Y-143891000D03*
X153670000Y-141351000D03*
%TD*%
%TO.C,Conn3*%
X123444000Y-119380000D03*
X125984000Y-119380000D03*
X128524000Y-119380000D03*
%TD*%
D16*
%TO.C,H4*%
X154940000Y-63500000D03*
%TD*%
%TO.C,H1*%
X154940000Y-152400000D03*
%TD*%
D10*
%TO.C,Conn14*%
X81977200Y-100203000D03*
X81977200Y-108077000D03*
%TD*%
D11*
%TO.C,U4*%
X114046000Y-74295000D03*
X111506000Y-74295000D03*
X108966000Y-74295000D03*
%TD*%
D23*
%TO.C,J2*%
X155448000Y-85090000D03*
D24*
X155448000Y-87630000D03*
X155448000Y-90170000D03*
X155448000Y-92710000D03*
%TD*%
D11*
%TO.C,Conn4*%
X123444000Y-132080000D03*
X125984000Y-132080000D03*
X128524000Y-132080000D03*
%TD*%
M02*
