M48
; DRILL file {KiCad 8.0.5} date 2024-11-14T23:16:09-0600
; FORMAT={-:-/ absolute / inch / decimal}
; #@! TF.CreationDate,2024-11-14T23:16:09-06:00
; #@! TF.GenerationSoftware,Kicad,Pcbnew,8.0.5
; #@! TF.FileFunction,Plated,1,2,PTH
FMAT,2
INCH
; #@! TA.AperFunction,Plated,PTH,ViaDrill
T1C0.0118
; #@! TA.AperFunction,Plated,PTH,ComponentDrill
T2C0.0276
; #@! TA.AperFunction,Plated,PTH,ComponentDrill
T3C0.0315
; #@! TA.AperFunction,Plated,PTH,ComponentDrill
T4C0.0354
; #@! TA.AperFunction,Plated,PTH,ComponentDrill
T5C0.0394
; #@! TA.AperFunction,Plated,PTH,ComponentDrill
T6C0.0402
; #@! TA.AperFunction,Plated,PTH,ComponentDrill
T7C0.0591
; #@! TA.AperFunction,Plated,PTH,ComponentDrill
T8C0.0630
; #@! TA.AperFunction,Plated,PTH,ComponentDrill
T9C0.0787
; #@! TA.AperFunction,Plated,PTH,ComponentDrill
T10C0.1280
%
G90
G05
T1
X3.4Y-5.8
X3.4Y-6.0
X3.6Y-3.1
X3.6Y-3.3
X3.6Y-5.8
X3.6Y-6.0
X3.8Y-3.1
X3.8Y-3.3
X3.8Y-4.4
X3.8Y-4.6
X3.8Y-4.8
X3.8Y-5.0
X3.8Y-5.2
X3.8Y-5.4
X3.8Y-5.8
X3.8Y-6.0
X3.88Y-3.68
X4.0Y-3.1
X4.0Y-3.3
X4.0Y-4.4
X4.0Y-4.6
X4.0Y-5.0
X4.0Y-5.4
X4.0Y-5.8
X4.0Y-6.0
X4.2Y-3.1
X4.2Y-3.3
X4.2Y-3.8
X4.2Y-4.0
X4.2Y-4.4
X4.2Y-4.6
X4.2Y-5.4
X4.2Y-5.6
X4.2Y-5.8
X4.2Y-6.0
X4.2282Y-4.7482
X4.4Y-3.1
X4.4Y-3.3
X4.4Y-3.68
X4.4Y-3.8
X4.4Y-4.0
X4.4Y-4.4
X4.4Y-4.6
X4.4Y-5.2
X4.4Y-5.4
X4.4Y-5.8
X4.4Y-6.0
X4.52Y-3.71
X4.52Y-4.68
X4.54Y-5.7
X4.555Y-4.115
X4.6Y-3.4
X4.6Y-3.6
X4.6Y-3.8
X4.6Y-4.0
X4.6Y-4.6
X4.6Y-5.8
X4.6Y-6.0
X4.7Y-5.0
X4.7Y-5.6
X4.7289Y-4.91
X4.75Y-5.2
X4.755Y-4.76
X4.8Y-3.4
X4.8Y-3.6
X4.8Y-3.8
X4.8Y-4.0
X4.8Y-4.3
X4.8Y-4.4
X4.8Y-4.6
X4.8Y-5.8
X4.8Y-6.0
X4.86Y-4.15
X4.89Y-3.99
X4.9Y-5.0
X4.9Y-5.2
X4.9Y-5.6
X4.91Y-4.4
X4.91Y-4.6
X4.915Y-4.085
X4.97Y-2.89
X4.97Y-4.6913
X4.97Y-4.7228
X5.0Y-3.22
X5.0Y-3.4
X5.0Y-3.6
X5.0Y-3.8
X5.0Y-4.3
X5.0Y-4.4
X5.0Y-4.6
X5.0Y-5.8
X5.0Y-6.0
X5.01Y-5.0
X5.065Y-4.795
X5.0713Y-4.2075
X5.1Y-5.2
X5.1Y-5.6
X5.15Y-5.0
X5.18Y-3.22
X5.2Y-3.1
X5.2Y-3.4
X5.2Y-3.6
X5.2Y-3.8
X5.2Y-4.4
X5.2Y-4.6
X5.255Y-5.585
X5.275Y-4.115
X5.3Y-5.0
X5.3Y-5.8
X5.3Y-6.0
X5.35Y-5.65
X5.37Y-4.37
X5.39Y-2.895
X5.39Y-4.0453
X5.395Y-3.29
X5.4Y-5.3
X5.4Y-5.5
X5.45Y-5.0
X5.4532Y-4.915
X5.4538Y-4.7271
X5.4964Y-4.77
X5.5Y-3.4
X5.5Y-3.6
X5.5Y-3.8
X5.5Y-5.8
X5.5Y-6.0
X5.5026Y-4.8903
X5.5026Y-5.0874
X5.5026Y-5.2
X5.535Y-4.9397
X5.55Y-5.3
X5.6Y-3.1
X5.6Y-4.125
X5.6Y-4.4
X5.6Y-4.6
X5.6Y-5.7
X5.6026Y-5.0874
X5.65Y-5.3
X5.7Y-3.4
X5.7Y-3.6
X5.7Y-3.8
X5.7Y-6.0
X5.72Y-4.6
X5.75Y-5.0
X5.75Y-5.3
X5.76Y-4.13
X5.76Y-4.915
X5.8Y-3.065
X5.8Y-4.4
X5.8Y-4.6
X5.8Y-5.7
X5.82Y-3.99
X5.8492Y-4.9376
X5.8762Y-4.3
X5.9Y-3.6
X5.9Y-3.8
X5.9Y-5.4
X5.9Y-5.5
X5.9Y-5.7
X5.9Y-6.0
X5.92Y-4.4
X5.92Y-4.6
X5.965Y-3.505
X6.0Y-5.0
X6.0Y-5.2
X6.015Y-4.335
X6.05Y-4.0
X6.06Y-4.175
X6.1Y-4.4
X6.1Y-4.6
X6.1Y-4.925
X6.1Y-5.0
X6.1Y-5.2
X6.1Y-5.4
X6.1Y-5.6
X6.1Y-5.8
X6.1Y-6.0
X6.17Y-4.09
X6.19Y-3.535
X6.2Y-3.3
X6.2Y-3.6
X6.2Y-3.8
X6.21Y-4.4
X6.21Y-4.6
X6.215Y-4.045
X6.3Y-4.4
X6.3Y-4.6
X6.3Y-5.4
X6.3Y-5.6
X6.3Y-6.0
T2
X4.5256Y-4.3165
X4.5256Y-4.3952
X4.5256Y-4.4739
X4.6044Y-4.3165
X4.6044Y-4.3952
X4.6044Y-4.4739
T3
X4.015Y-4.22
X4.015Y-4.82
X4.115Y-4.22
X4.115Y-4.82
X4.215Y-4.22
X4.215Y-4.82
X4.315Y-4.22
X4.315Y-4.82
X4.415Y-4.22
X4.415Y-4.82
X4.515Y-4.22
X4.515Y-4.82
X4.615Y-4.22
X4.615Y-4.82
X4.715Y-4.22
X4.715Y-4.82
X4.815Y-4.22
X4.815Y-4.82
X4.915Y-4.22
X4.915Y-4.82
X5.015Y-4.22
X5.015Y-4.82
X5.115Y-4.22
X5.115Y-4.82
X5.215Y-4.22
X5.215Y-4.82
X5.315Y-4.22
X5.315Y-4.82
X5.415Y-4.22
X5.415Y-4.82
X5.515Y-4.22
X5.515Y-4.82
X5.615Y-4.22
X5.615Y-4.82
X5.715Y-4.22
X5.715Y-4.82
X5.815Y-4.22
X5.815Y-4.82
X5.915Y-4.22
X5.915Y-4.82
X5.92Y-3.0525
X5.92Y-3.1313
X5.92Y-3.21
X6.015Y-4.22
X6.015Y-4.82
X6.115Y-4.22
X6.115Y-4.82
X6.215Y-4.22
X6.215Y-4.82
X6.315Y-4.22
X6.315Y-4.82
T4
X3.495Y-5.9
X3.595Y-5.9
X3.986Y-5.325
X4.036Y-5.225
X4.086Y-5.325
X4.136Y-5.225
X4.186Y-5.325
X4.236Y-5.225
X4.286Y-5.325
X4.336Y-5.225
X4.655Y-5.89
X4.675Y-5.455
X4.68Y-5.125
X4.755Y-5.89
X4.775Y-5.455
X4.78Y-5.125
X4.855Y-5.89
X5.005Y-5.455
X5.01Y-5.125
X5.105Y-5.455
X5.11Y-5.125
X5.13Y-5.89
X5.23Y-5.89
X5.33Y-5.89
X5.335Y-5.125
X5.335Y-5.455
X5.435Y-5.125
X5.435Y-5.455
X5.535Y-5.125
X5.535Y-5.455
X5.55Y-5.89
X5.635Y-5.125
X5.635Y-5.455
X5.65Y-5.89
X5.735Y-5.125
X5.735Y-5.455
X5.75Y-5.89
X5.85Y-5.89
X5.95Y-5.89
X5.965Y-5.125
X5.965Y-5.455
X5.965Y-5.455
X6.065Y-5.125
X6.065Y-5.455
X6.165Y-5.125
X6.165Y-5.455
X6.265Y-5.125
X6.265Y-5.125
X6.265Y-5.455
T5
X4.2454Y-3.4448
X4.3454Y-3.4448
X4.4454Y-3.4448
X6.3Y-3.505
X6.3Y-3.605
X6.3Y-3.705
X6.3Y-3.805
T6
X3.912Y-5.775
X4.012Y-5.7045
X4.31Y-5.775
X4.41Y-5.7045
T7
X5.92Y-2.9698
X5.92Y-3.2927
T8
X3.8509Y-5.4549
X4.471Y-5.4549
T10
X3.936Y-5.575
X4.386Y-5.575
T9
G00X3.6276Y-3.7235
M15
G01X3.6276Y-3.8062
M16
G05
G00X3.6276Y-4.0335
M15
G01X3.6276Y-4.1162
M16
G05
G00X3.6276Y-4.4285
M15
G01X3.6276Y-4.5112
M16
G05
G00X3.6276Y-4.7385
M15
G01X3.6276Y-4.8212
M16
G05
G00X3.6296Y-5.1335
M15
G01X3.6296Y-5.2162
M16
G05
G00X3.6296Y-5.4435
M15
G01X3.6296Y-5.5262
M16
G05
G00X3.6715Y-3.5326
M15
G01X3.5888Y-3.5326
M16
G05
G00X3.9815Y-3.5326
M15
G01X3.8988Y-3.5326
M16
G05
M30
