%TF.GenerationSoftware,KiCad,Pcbnew,8.0.5*%
%TF.CreationDate,2024-11-14T23:15:58-06:00*%
%TF.ProjectId,AugerBoard_Hardware,41756765-7242-46f6-9172-645f48617264,rev?*%
%TF.SameCoordinates,Original*%
%TF.FileFunction,Paste,Top*%
%TF.FilePolarity,Positive*%
%FSLAX46Y46*%
G04 Gerber Fmt 4.6, Leading zero omitted, Abs format (unit mm)*
G04 Created by KiCad (PCBNEW 8.0.5) date 2024-11-14 23:15:58*
%MOMM*%
%LPD*%
G01*
G04 APERTURE LIST*
G04 Aperture macros list*
%AMRoundRect*
0 Rectangle with rounded corners*
0 $1 Rounding radius*
0 $2 $3 $4 $5 $6 $7 $8 $9 X,Y pos of 4 corners*
0 Add a 4 corners polygon primitive as box body*
4,1,4,$2,$3,$4,$5,$6,$7,$8,$9,$2,$3,0*
0 Add four circle primitives for the rounded corners*
1,1,$1+$1,$2,$3*
1,1,$1+$1,$4,$5*
1,1,$1+$1,$6,$7*
1,1,$1+$1,$8,$9*
0 Add four rect primitives between the rounded corners*
20,1,$1+$1,$2,$3,$4,$5,0*
20,1,$1+$1,$4,$5,$6,$7,0*
20,1,$1+$1,$6,$7,$8,$9,0*
20,1,$1+$1,$8,$9,$2,$3,0*%
G04 Aperture macros list end*
%ADD10RoundRect,0.150000X-0.587500X-0.150000X0.587500X-0.150000X0.587500X0.150000X-0.587500X0.150000X0*%
%ADD11O,3.000000X5.100000*%
%ADD12O,5.100000X3.000000*%
%ADD13RoundRect,0.237500X0.237500X-0.300000X0.237500X0.300000X-0.237500X0.300000X-0.237500X-0.300000X0*%
%ADD14RoundRect,0.237500X-0.250000X-0.237500X0.250000X-0.237500X0.250000X0.237500X-0.250000X0.237500X0*%
%ADD15RoundRect,0.237500X0.287500X0.237500X-0.287500X0.237500X-0.287500X-0.237500X0.287500X-0.237500X0*%
%ADD16RoundRect,0.237500X0.250000X0.237500X-0.250000X0.237500X-0.250000X-0.237500X0.250000X-0.237500X0*%
%ADD17R,1.600000X1.400000*%
%ADD18RoundRect,0.237500X0.300000X0.237500X-0.300000X0.237500X-0.300000X-0.237500X0.300000X-0.237500X0*%
%ADD19RoundRect,0.237500X-0.300000X-0.237500X0.300000X-0.237500X0.300000X0.237500X-0.300000X0.237500X0*%
G04 APERTURE END LIST*
D10*
%TO.C,Q1*%
X117505000Y-79060000D03*
X117505000Y-80960000D03*
X119380000Y-80010000D03*
%TD*%
D11*
%TO.C,Conn8*%
X92141200Y-95627000D03*
X92141200Y-103501000D03*
%TD*%
D12*
%TO.C,Conn1*%
X100080000Y-89728200D03*
X92206000Y-89728200D03*
%TD*%
D13*
%TO.C,C1*%
X110413800Y-129513500D03*
X110413800Y-127788500D03*
%TD*%
D14*
%TO.C,R4*%
X97870000Y-100330000D03*
X99695000Y-100330000D03*
%TD*%
%TO.C,R5*%
X97870000Y-96266000D03*
X99695000Y-96266000D03*
%TD*%
D15*
%TO.C,D6*%
X146022000Y-78994000D03*
X144272000Y-78994000D03*
%TD*%
D16*
%TO.C,R6*%
X145970000Y-81280000D03*
X144145000Y-81280000D03*
%TD*%
%TO.C,R1*%
X125142000Y-81534000D03*
X123317000Y-81534000D03*
%TD*%
D17*
%TO.C,SW4*%
X138894000Y-73430000D03*
X146094000Y-73430000D03*
X138894000Y-76430000D03*
X146094000Y-76430000D03*
%TD*%
D18*
%TO.C,C6*%
X113157000Y-91440000D03*
X111432000Y-91440000D03*
%TD*%
D11*
%TO.C,Conn12*%
X92141200Y-113534000D03*
X92141200Y-121408000D03*
%TD*%
D17*
%TO.C,SW2*%
X117558000Y-73430000D03*
X124758000Y-73430000D03*
X117558000Y-76430000D03*
X124758000Y-76430000D03*
%TD*%
D15*
%TO.C,D3*%
X103477000Y-96266000D03*
X101727000Y-96266000D03*
%TD*%
%TO.C,D2*%
X103477000Y-100330000D03*
X101727000Y-100330000D03*
%TD*%
D17*
%TO.C,SW3*%
X128016000Y-73430000D03*
X135216000Y-73430000D03*
X128016000Y-76430000D03*
X135216000Y-76430000D03*
%TD*%
D10*
%TO.C,Q2*%
X128295000Y-78994000D03*
X128295000Y-80894000D03*
X130170000Y-79944000D03*
%TD*%
D15*
%TO.C,D4*%
X125067000Y-78994000D03*
X123317000Y-78994000D03*
%TD*%
D19*
%TO.C,C7*%
X107622000Y-91440000D03*
X109347000Y-91440000D03*
%TD*%
D15*
%TO.C,D5*%
X135227000Y-78994000D03*
X133477000Y-78994000D03*
%TD*%
D16*
%TO.C,R2*%
X135556000Y-81534000D03*
X133731000Y-81534000D03*
%TD*%
D10*
%TO.C,Q3*%
X138714000Y-79568000D03*
X138714000Y-81468000D03*
X140589000Y-80518000D03*
%TD*%
D15*
%TO.C,D1*%
X103477000Y-104394000D03*
X101727000Y-104394000D03*
%TD*%
D11*
%TO.C,Conn14*%
X92192000Y-131441000D03*
X92192000Y-139315000D03*
%TD*%
D14*
%TO.C,R3*%
X97870000Y-104368600D03*
X99695000Y-104368600D03*
%TD*%
M02*
