M48
; DRILL file {KiCad 9.0.4} date 2025-11-01T18:06:47-0500
; FORMAT={-:-/ absolute / inch / decimal}
; #@! TF.CreationDate,2025-11-01T18:06:47-05:00
; #@! TF.GenerationSoftware,Kicad,Pcbnew,9.0.4
; #@! TF.FileFunction,Plated,1,2,PTH
FMAT,2
INCH
; #@! TA.AperFunction,Plated,PTH,ViaDrill
T1C0.0118
; #@! TA.AperFunction,Plated,PTH,ComponentDrill
T2C0.0276
; #@! TA.AperFunction,Plated,PTH,ComponentDrill
T3C0.0315
; #@! TA.AperFunction,Plated,PTH,ComponentDrill
T4C0.0350
; #@! TA.AperFunction,Plated,PTH,ComponentDrill
T5C0.0354
; #@! TA.AperFunction,Plated,PTH,ComponentDrill
T6C0.0394
; #@! TA.AperFunction,Plated,PTH,ComponentDrill
T7C0.0402
; #@! TA.AperFunction,Plated,PTH,ComponentDrill
T8C0.0591
; #@! TA.AperFunction,Plated,PTH,ComponentDrill
T9C0.0630
; #@! TA.AperFunction,Plated,PTH,ComponentDrill
T10C0.0787
; #@! TA.AperFunction,Plated,PTH,ComponentDrill
T11C0.1280
%
G90
G05
T1
X3.05Y-5.95
X3.16Y-2.35
X3.16Y-2.65
X3.16Y-2.85
X3.38Y-3.89
X3.4Y-3.2
X3.4Y-4.45
X3.4Y-5.3
X3.4Y-5.65
X3.4Y-5.95
X3.42Y-4.93
X3.46Y-3.66
X3.5Y-2.35
X3.5Y-2.65
X3.5Y-2.85
X3.5Y-3.75
X3.55Y-3.4
X3.55Y-3.95
X3.55Y-4.25
X3.55Y-4.65
X3.55Y-4.95
X3.625Y-5.5
X3.64Y-4.59
X3.7Y-3.2
X3.7Y-3.4
X3.7Y-3.75
X3.7Y-4.25
X3.7Y-5.0
X3.7Y-5.5
X3.7Y-5.95
X3.78Y-2.35
X3.78Y-2.65
X3.78Y-2.85
X3.78Y-3.08
X3.83Y-3.43
X3.83Y-3.51
X3.85Y-4.75
X3.87Y-4.81
X3.9Y-3.1
X3.9Y-3.17
X3.9Y-3.3
X3.9Y-3.45
X3.9Y-3.6
X3.9Y-5.7
X4.0Y-5.0
X4.02Y-2.35
X4.02Y-2.65
X4.02Y-2.85
X4.02Y-3.1
X4.025Y-3.925
X4.025Y-4.275
X4.05Y-4.77
X4.05Y-5.5
X4.05Y-5.95
X4.06Y-3.73
X4.07Y-4.51
X4.0967Y-4.89
X4.11Y-4.29
X4.1418Y-4.7618
X4.15Y-3.1
X4.15Y-3.3
X4.15Y-3.45
X4.15Y-3.6
X4.17Y-3.85
X4.17Y-4.09
X4.17Y-4.85
X4.19Y-3.03
X4.1989Y-4.0521
X4.2015Y-4.8486
X4.23Y-4.51
X4.23Y-4.76
X4.26Y-3.1697
X4.26Y-4.93
X4.27Y-4.17
X4.35Y-2.35
X4.35Y-2.65
X4.35Y-2.85
X4.35Y-3.1
X4.4Y-3.14
X4.4Y-3.5
X4.4Y-5.95
X4.45Y-4.575
X4.45Y-4.825
X4.45Y-5.075
X4.5Y-5.475
X4.5Y-5.75
X4.51Y-3.71
X4.545Y-3.74
X4.55Y-3.1
X4.55Y-3.3
X4.59Y-5.36
X4.6Y-4.575
X4.6Y-5.075
X4.6047Y-3.5
X4.61Y-4.79
X4.62Y-3.8815
X4.65Y-2.35
X4.65Y-3.925
X4.65Y-4.275
X4.67Y-2.63
X4.67Y-3.3
X4.67Y-3.6
X4.675Y-2.8
X4.675Y-5.075
X4.69Y-4.57
X4.69Y-4.79
X4.75Y-5.95
X4.775Y-3.525
X4.775Y-5.75
X4.81Y-5.11
X4.85Y-4.575
X4.85Y-4.775
X4.88Y-5.38
X4.9Y-2.65
X4.9Y-2.95
X4.9Y-3.25
X4.97Y-3.7
X5.0Y-3.55
X5.0Y-5.075
X5.0Y-5.31
X5.0Y-5.475
X5.025Y-3.925
X5.025Y-4.275
X5.08Y-3.47
X5.1Y-5.95
X5.125Y-4.7
X5.14Y-3.69
X5.15Y-2.35
X5.16Y-4.81
X5.1653Y-5.48
X5.225Y-3.925
X5.225Y-4.275
X5.225Y-4.575
X5.225Y-4.825
X5.23Y-3.69
X5.23Y-5.08
X5.27Y-4.85
X5.27Y-5.02
X5.2947Y-5.48
X5.3Y-2.65
X5.3Y-2.95
X5.3Y-3.25
X5.3Y-3.575
X5.31Y-4.77
X5.325Y-5.075
X5.35Y-5.4
X5.4Y-3.65
X5.42Y-5.08
X5.44Y-3.92
X5.44Y-4.27
X5.45Y-2.35
X5.45Y-5.95
X5.46Y-3.37
X5.48Y-4.85
X5.4837Y-3.2758
X5.5Y-2.645
X5.51Y-5.76
X5.57Y-3.7
X5.6Y-3.55
X5.61Y-3.37
X5.625Y-4.575
X5.65Y-3.72
X5.65Y-5.49
X5.65Y-5.595
X5.68Y-4.66
X5.69Y-4.74
X5.7Y-2.65
X5.7Y-2.95
X5.7Y-3.25
X5.725Y-5.075
X5.73Y-5.53
X5.74Y-4.77
X5.74Y-5.42
X5.74Y-5.77
X5.8Y-3.55
X5.8Y-5.32
X5.8Y-5.95
X5.82Y-3.92
X5.82Y-4.27
X5.83Y-3.25
X5.83Y-4.58
X5.8864Y-2.8064
X5.8864Y-3.33
X5.89Y-2.65
X5.93Y-4.48
X5.95Y-2.35
X5.95Y-3.33
X5.95Y-4.575
X5.95Y-4.85
X5.975Y-2.95
X5.975Y-3.525
X6.0Y-3.25
X6.07Y-3.94
X6.1Y-2.7
X6.1015Y-3.94
X6.12Y-5.2025
X6.12Y-5.4
X6.12Y-5.525
X6.12Y-5.715
X6.14Y-3.92
X6.14Y-4.27
X6.15Y-4.7
T2
X4.3406Y-3.8965
X4.3406Y-3.9752
X4.3406Y-4.0539
X4.4194Y-3.8965
X4.4194Y-3.9752
X4.4194Y-4.0539
T3
X3.83Y-3.8
X3.83Y-4.4
X3.93Y-3.8
X3.93Y-4.4
X4.03Y-3.8
X4.03Y-4.4
X4.13Y-3.8
X4.13Y-4.4
X4.23Y-3.8
X4.23Y-4.4
X4.33Y-3.8
X4.33Y-4.4
X4.43Y-3.8
X4.43Y-4.4
X4.53Y-3.8
X4.53Y-4.4
X4.63Y-3.8
X4.63Y-4.4
X4.73Y-3.8
X4.73Y-4.4
X4.83Y-3.8
X4.83Y-4.4
X4.93Y-3.8
X4.93Y-4.4
X5.03Y-3.8
X5.03Y-4.4
X5.13Y-3.8
X5.13Y-4.4
X5.23Y-3.8
X5.23Y-4.4
X5.33Y-3.8
X5.33Y-4.4
X5.43Y-3.8
X5.43Y-4.4
X5.53Y-3.8
X5.53Y-4.4
X5.63Y-3.8
X5.63Y-4.4
X5.73Y-3.8
X5.73Y-4.4
X5.83Y-3.8
X5.83Y-4.4
X5.93Y-3.8
X5.93Y-4.4
X6.03Y-3.8
X6.03Y-4.4
X6.1Y-2.9213
X6.1Y-3.0
X6.1Y-3.0787
X6.13Y-3.8
X6.13Y-4.4
T4
X3.85Y-2.925
X3.95Y-2.925
X4.05Y-2.925
X4.29Y-2.925
X4.39Y-2.925
X4.49Y-2.925
T5
X3.705Y-5.432
X3.755Y-5.332
X3.805Y-5.432
X3.855Y-5.332
X3.905Y-5.432
X3.955Y-5.332
X4.005Y-5.432
X4.055Y-5.332
X4.395Y-5.68
X4.4Y-4.7
X4.4Y-5.2
X4.495Y-5.68
X4.5Y-4.7
X4.5Y-5.2
X4.595Y-5.68
X4.6Y-4.7
X4.6Y-5.2
X4.695Y-5.68
X4.86Y-4.7
X4.86Y-5.2
X4.92Y-5.68
X4.96Y-4.7
X4.96Y-5.2
X5.02Y-5.68
X5.06Y-4.7
X5.06Y-5.2
X5.12Y-5.68
X5.22Y-5.68
X5.32Y-4.7
X5.42Y-4.7
X5.52Y-4.7
X5.56Y-5.2
X5.66Y-5.2
X5.76Y-5.2
X5.78Y-4.7
X5.88Y-4.7
X5.98Y-4.7
X6.05Y-5.24
X6.05Y-5.34
X6.05Y-5.565
X6.05Y-5.665
T6
X6.12Y-3.35
X6.12Y-3.45
X6.12Y-3.55
X6.12Y-3.65
T7
X3.631Y-5.882
X3.731Y-5.8116
X4.029Y-5.882
X4.129Y-5.8116
T8
X6.1Y-2.8386
X6.1Y-3.1614
T9
X3.57Y-5.5619
X4.19Y-5.5619
T11
X3.655Y-5.682
X4.105Y-5.682
T10
G00X3.2274Y-3.2037
M15
G01X3.2274Y-3.2863
M16
G05
G00X3.2274Y-3.5137
M15
G01X3.2274Y-3.5963
M16
G05
G00X3.2274Y-3.9037
M15
G01X3.2274Y-3.9863
M16
G05
G00X3.2274Y-4.2137
M15
G01X3.2274Y-4.2963
M16
G05
G00X3.2274Y-4.6037
M15
G01X3.2274Y-4.6863
M16
G05
G00X3.2274Y-4.9137
M15
G01X3.2274Y-4.9963
M16
G05
G00X3.2274Y-5.3037
M15
G01X3.2274Y-5.3863
M16
G05
G00X3.2274Y-5.6137
M15
G01X3.2274Y-5.6963
M16
G05
G00X3.2863Y-3.0274
M15
G01X3.2037Y-3.0274
M16
G05
G00X3.5963Y-3.0274
M15
G01X3.5137Y-3.0274
M16
G05
M30
